SplineFontDB: 3.0
FontName: Topmarks-Bold
FullName: Topmarks Bold
FamilyName: Topmarks
Weight: Bold
Copyright: 2013 (c) vernon adams
Version: x
ItalicAngle: 0
UnderlinePosition: 0
UnderlineWidth: 0
Ascent: 1638
Descent: 410
UFOAscent: 1638
UFODescent: -410
LayerCount: 2
Layer: 0 0 "Back"  1
Layer: 1 0 "Fore"  0
FSType: 0
OS2Version: 0
OS2_WeightWidthSlopeOnly: 0
OS2_UseTypoMetrics: 1
CreationTime: 1362609520
ModificationTime: 1362609624
PfmFamily: 33
TTFWeight: 700
TTFWidth: 5
LineGap: 0
VLineGap: 0
OS2TypoAscent: 1638
OS2TypoAOffset: 0
OS2TypoDescent: -410
OS2TypoDOffset: 0
OS2TypoLinegap: 0
OS2WinAscent: 1638
OS2WinAOffset: 0
OS2WinDescent: 410
OS2WinDOffset: 0
HheadAscent: 1638
HheadAOffset: 0
HheadDescent: -410
HheadDOffset: 0
OS2Vendor: 'newt'
Lookup: 258 0 0 "'kern' Horizontal Kerning in Latin lookup 0"  {"'kern' Horizontal Kerning in Latin lookup 0 subtable"  } ['kern' ('latn' <'dflt' > ) ]
MarkAttachClasses: 1
DEI: 91125
LangName: 1033 "" "" "" "" "" "" "" "" "" "" "" "" "" "Copyright (c) 2013, vernon adams (<URL|email>),+AAoA-with Reserved Font Name Topmarks.+AAoACgAA-This Font Software is licensed under the SIL Open Font License, Version 1.1.+AAoA-This license is copied below, and is also available with a FAQ at:+AAoA-http://scripts.sil.org/OFL" "http://scripts.sil.org/OFL" 
Encoding: ISO8859-1
Compacted: 1
UnicodeInterp: none
NameList: AGL For New Fonts
DisplaySize: -48
AntiAlias: 1
FitToEm: 1
WinInfo: 0 18 11
BeginPrivate: 7
BlueFuzz 1 2
BlueScale 19 0.07528750000000001
BlueShift 2 13
BlueValues 37 [-35 0 1026 1048 1449 1483 1490 1532]
OtherBlues 11 [-787 -721]
StemSnapH 20 [39 243 267 276 288]
StemSnapV 9 [321 334]
EndPrivate
BeginChars: 322 90

StartChar: A
Encoding: 65 65 0
Width: 1514
VWidth: 0
Flags: HW
LayerCount: 2
UndoRedoHistory
Layer: 1
Undoes
EndUndoes
Redoes
EndRedoes
EndUndoRedoHistory
Fore
SplineSet
534.9 532.8 m 1
 974.4 532.8 l 1
 884.5 777.7 l 1
 753.7 1138.7 l 1
 627.2 777.6 l 1
 534.9 532.8 l 1
69.7 0 m 1
 641.3 1448.8 l 1
 878.5 1448.8 l 1
 1444.8 0 l 1
 1169.2 0 l 1
 1044.6 341 l 1
 462.9 341 l 1
 334.9 0 l 1
 69.7 0 l 1
EndSplineSet
EndChar

StartChar: B
Encoding: 66 66 1
Width: 1471
VWidth: 0
Flags: HW
LayerCount: 2
UndoRedoHistory
Layer: 1
Undoes
EndUndoes
Redoes
EndRedoes
EndUndoRedoHistory
Fore
SplineSet
438.7 839.4 m 1
 681.5 839.4 l 2
 920.3 839.4 1021.4 906.1 1021.4 1063.5 c 0
 1021.4 1199.8 917.4 1254 670.5 1254 c 2
 438.7 1254 l 1
 438.7 839.4 l 1
438.7 195.7 m 1
 729.6 195.7 l 2
 978.7 195.7 1084.9 263.3 1084.9 430.3 c 0
 1084.9 591.2 973.7 659.7 711.5 659.7 c 2
 438.7 659.7 l 1
 438.7 195.7 l 1
188.4 0 m 1
 188.4 1448.8 l 1
 670.5 1448.8 l 2
 1082.4 1448.8 1260.9 1346.2 1260.9 1100.5 c 0
 1260.9 919.8 1189.5 823 1021.4 774.4 c 1
 1232 739 1324.5 632.2 1324.5 418.3 c 0
 1324.5 125.7 1143.8 0 736.5 0 c 2
 188.4 0 l 1
EndSplineSet
EndChar

StartChar: C
Encoding: 67 67 2
Width: 1472
VWidth: 0
Flags: HW
LayerCount: 2
UndoRedoHistory
Layer: 1
Undoes
EndUndoes
Redoes
EndRedoes
EndUndoRedoHistory
Fore
SplineSet
891.6 -22 m 0
 430.8 -22 140.8 275.3 140.8 720.6 c 0
 140.8 1171.6 450.3 1471.3 910.7 1471.3 c 0
 1081.2 1471.3 1254.7 1410.4 1366.5 1321.2 c 1
 1279.4 1126.8 l 1
 1185.6 1202 1042.4 1256.3 915.3 1256.3 c 0
 606.3 1256.3 403.9 1036.4 403.9 719.6 c 0
 403.9 410.8 603.6 193 912.8 193 c 0
 1051.5 193 1206.3 244.7 1305.5 324.6 c 1
 1381.4 114.4 l 1
 1271.4 24.7 1069.2 -22 891.6 -22 c 0
EndSplineSet
EndChar

StartChar: D
Encoding: 68 68 3
Width: 1622
VWidth: 0
Flags: HW
LayerCount: 2
UndoRedoHistory
Layer: 1
Undoes
EndUndoes
Redoes
EndRedoes
EndUndoRedoHistory
Fore
SplineSet
188.4 0 m 1
 188.4 1448.8 l 1
 574.5 1448.8 l 2
 1201.7 1448.8 1483.9 1239.7 1483.9 736.6 c 0
 1483.9 223 1220.9 0 636.9 0 c 2
 188.4 0 l 1
445 194.8 m 1
 652.9 194.8 l 2
 1047.8 194.8 1224.5 365.3 1224.5 733.6 c 0
 1224.5 1096.2 1033.8 1254 606.3 1254 c 2
 445 1254 l 1
 445 194.8 l 1
EndSplineSet
EndChar

StartChar: E
Encoding: 69 69 4
Width: 1256
VWidth: 0
Flags: HW
LayerCount: 2
UndoRedoHistory
Layer: 1
Undoes
EndUndoes
Redoes
EndRedoes
EndUndoRedoHistory
Fore
SplineSet
188.4 0 m 1
 188.4 1448.8 l 1
 1091.4 1448.8 l 1
 1091.4 1254 l 1
 438.7 1254 l 1
 438.7 833.5 l 1
 1053.4 833.5 l 1
 1053.4 645 l 1
 438.7 645 l 1
 438.7 194.8 l 1
 1141.4 194.8 l 1
 1141.4 0 l 1
 188.4 0 l 1
EndSplineSet
EndChar

StartChar: F
Encoding: 70 70 5
Width: 1195
VWidth: 0
Flags: HW
LayerCount: 2
UndoRedoHistory
Layer: 1
Undoes
EndUndoes
Redoes
EndRedoes
EndUndoRedoHistory
Fore
SplineSet
188.4 0 m 1
 188.4 1448.8 l 1
 1071.9 1448.8 l 1
 1071.9 1254 l 1
 438.7 1254 l 1
 438.7 852.8 l 1
 1038.8 852.8 l 1
 1038.8 664.3 l 1
 438.7 664.3 l 1
 438.7 0 l 1
 188.4 0 l 1
EndSplineSet
EndChar

StartChar: G
Encoding: 71 71 6
Width: 1609
VWidth: 0
Flags: HW
LayerCount: 2
UndoRedoHistory
Layer: 1
Undoes
EndUndoes
Redoes
EndRedoes
EndUndoRedoHistory
Fore
SplineSet
916.1 -22 m 0
 443 -22 140.8 254.3 140.8 688.4 c 0
 140.8 1159.6 457.7 1471.3 938.8 1471.3 c 0
 1109.3 1471.3 1289.8 1417.5 1421.1 1332.1 c 1
 1340.1 1150.3 l 1
 1226.5 1214 1071.7 1256.3 947.4 1256.3 c 0
 609.3 1256.3 404.3 1036.6 404.3 702.3 c 0
 404.3 386.3 606.8 193 929.2 193 c 0
 1035.8 193 1136.4 210.4 1208.4 240.1 c 1
 1208.4 596.3 l 1
 885.2 596.3 l 1
 885.2 771.4 l 1
 1445.2 771.4 l 1
 1445.2 78.3 l 1
 1311.9 15.7 1104.3 -22 916.1 -22 c 0
EndSplineSet
EndChar

StartChar: H
Encoding: 72 72 7
Width: 1615
VWidth: 0
Flags: HW
LayerCount: 2
UndoRedoHistory
Layer: 1
Undoes
EndUndoes
Redoes
EndRedoes
EndUndoRedoHistory
Fore
SplineSet
188.4 0 m 1
 188.4 1448.8 l 1
 438.7 1448.8 l 1
 438.7 847.2 l 1
 1185.8 847.2 l 1
 1185.8 1448.8 l 1
 1427 1448.8 l 1
 1427 0 l 1
 1185.8 0 l 1
 1185.8 638.9 l 1
 438.7 638.9 l 1
 438.7 0 l 1
 188.4 0 l 1
EndSplineSet
EndChar

StartChar: I
Encoding: 73 73 8
Width: 629
VWidth: 0
Flags: HW
LayerCount: 2
UndoRedoHistory
Layer: 1
Undoes
EndUndoes
Redoes
EndRedoes
EndUndoRedoHistory
Fore
SplineSet
189.6 0 m 1
 189.6 1448.8 l 1
 439.9 1448.8 l 1
 439.9 0 l 1
 189.6 0 l 1
EndSplineSet
EndChar

StartChar: J
Encoding: 74 74 9
Width: 1167
VWidth: 0
Flags: HW
LayerCount: 2
UndoRedoHistory
Layer: 1
Undoes
EndUndoes
Redoes
EndRedoes
EndUndoRedoHistory
Fore
SplineSet
77.9 -114 m 1
 147.9 83.2 l 1
 237.8 38.7 317.8 15.9 383.1 15.9 c 0
 514.1 15.9 592 105.7 592 296.2 c 2
 592 1254.6 l 1
 208.1 1254.6 l 1
 208.1 1448.8 l 1
 1112.5 1448.8 l 1
 1112.5 1254.6 l 1
 842.3 1254.6 l 1
 842.3 297.3 l 2
 842.3 -52.4 640.5 -209.7 404.7 -209.7 c 0
 297.2 -209.7 182.6 -176.5 77.9 -114 c 1
EndSplineSet
EndChar

StartChar: K
Encoding: 75 75 10
Width: 1338
VWidth: 0
Flags: HW
LayerCount: 2
UndoRedoHistory
Layer: 1
Undoes
EndUndoes
Redoes
EndRedoes
EndUndoRedoHistory
Fore
SplineSet
188.4 0 m 1
 188.4 1448.8 l 1
 438.7 1448.8 l 1
 438.7 819.4 l 1
 999 1448.8 l 1
 1300.1 1448.8 l 1
 684.9 772.1 l 1
 1334.7 0 l 1
 1015 0 l 1
 438.7 685.4 l 1
 438.7 0 l 1
 188.4 0 l 1
EndSplineSet
EndChar

StartChar: L
Encoding: 76 76 11
Width: 1123
VWidth: 0
Flags: HW
LayerCount: 2
UndoRedoHistory
Layer: 1
Undoes
EndUndoes
Redoes
EndRedoes
EndUndoRedoHistory
Fore
SplineSet
188.4 0 m 1
 188.4 1448.8 l 1
 438.7 1448.8 l 1
 438.7 194.8 l 1
 1089.1 194.8 l 1
 1089.1 0 l 1
 188.4 0 l 1
EndSplineSet
EndChar

StartChar: M
Encoding: 77 77 12
Width: 1997
VWidth: 0
Flags: HW
LayerCount: 2
UndoRedoHistory
Layer: 1
Undoes
EndUndoes
Redoes
EndRedoes
EndUndoRedoHistory
Fore
SplineSet
188.4 0 m 1
 188.4 1448.8 l 1
 488.4 1448.8 l 1
 917.6 717.6 l 1
 1003.6 554.1 l 1
 1087.7 719.7 l 1
 1520.9 1448.8 l 1
 1808.7 1448.8 l 1
 1808.7 0 l 1
 1566.9 0 l 1
 1566.9 1094.4 l 1
 1462.8 886.3 l 1
 1063.7 228.1 l 1
 938.6 228.1 l 1
 541.8 898.3 l 1
 439.4 1111.4 l 1
 439.4 0 l 1
 188.4 0 l 1
EndSplineSet
EndChar

StartChar: N
Encoding: 78 78 13
Width: 1683
VWidth: 0
Flags: HW
LayerCount: 2
UndoRedoHistory
Layer: 1
Undoes
EndUndoes
Redoes
EndRedoes
EndUndoRedoHistory
Fore
SplineSet
188.4 0 m 1
 188.4 1448.8 l 1
 447.5 1448.8 l 1
 1147.9 484.2 l 1
 1270 303.2 l 1
 1270 1448.8 l 1
 1495 1448.8 l 1
 1495 0 l 1
 1233 0 l 1
 529.6 965.4 l 1
 413.5 1123.6 l 1
 413.5 0 l 1
 188.4 0 l 1
EndSplineSet
EndChar

StartChar: O
Encoding: 79 79 14
Width: 1741
VWidth: 0
Flags: HW
LayerCount: 2
UndoRedoHistory
Layer: 1
Undoes
EndUndoes
Redoes
EndRedoes
EndUndoRedoHistory
Fore
SplineSet
870.5 -22.3 m 0
 428 -22.3 140.8 282 140.8 726.2 c 0
 140.8 1172.4 428 1471.3 870.5 1471.3 c 0
 1313 1471.3 1601.1 1172.4 1601.1 726.2 c 0
 1601.1 282 1313 -22.3 870.5 -22.3 c 0
870.5 192.7 m 0
 1145.8 192.7 1337 400.2 1337 724.5 c 0
 1337 1054.2 1145.8 1256.3 870.5 1256.3 c 0
 595.2 1256.3 404.9 1054.2 404.9 724.5 c 0
 404.9 400.2 595.2 192.7 870.5 192.7 c 0
EndSplineSet
EndChar

StartChar: P
Encoding: 80 80 15
Width: 1336
VWidth: 0
Flags: HW
LayerCount: 2
UndoRedoHistory
Layer: 1
Undoes
EndUndoes
Redoes
EndRedoes
EndUndoRedoHistory
Fore
SplineSet
445 736.9 m 1
 680.8 736.9 l 2
 912.9 736.9 1014 816.7 1014 1002.7 c 0
 1014 1181.7 908.6 1254 660.8 1254 c 2
 445 1254 l 1
 445 736.9 l 1
188.4 0 m 1
 188.4 1448.8 l 1
 636.8 1448.8 l 2
 1084.1 1448.8 1273.6 1316 1273.6 1004.7 c 0
 1273.6 680.9 1087.3 539.3 661.8 539.3 c 2
 445 539.3 l 1
 445 0 l 1
 188.4 0 l 1
EndSplineSet
EndChar

StartChar: Q
Encoding: 81 81 16
Width: 1741
VWidth: 0
Flags: HW
LayerCount: 2
UndoRedoHistory
Layer: 1
Undoes
EndUndoes
Redoes
EndRedoes
EndUndoRedoHistory
Fore
SplineSet
1258.7 -424.7 m 1
 1143.5 -308.6 1034.5 -179.6 958.5 -17.5 c 1
 1185.6 51.5 l 1
 1248.6 -77.6 1336.6 -180.6 1433.7 -271.6 c 1
 1258.7 -424.7 l 1
EndSplineSet
Refer: 14 79 N 1 0 0 1 0 0 2
EndChar

StartChar: R
Encoding: 82 82 17
Width: 1389
VWidth: 0
Flags: HW
LayerCount: 2
UndoRedoHistory
Layer: 1
Undoes
EndUndoes
Redoes
EndRedoes
EndUndoRedoHistory
Fore
SplineSet
438.7 818.8 m 1
 667.8 818.8 l 2
 890 818.8 995 884.2 995 1054.4 c 0
 995 1218.7 894.4 1254 677.9 1254 c 2
 438.7 1254 l 1
 438.7 818.8 l 1
188.4 0 m 1
 188.4 1448.8 l 1
 647.9 1448.8 l 2
 1050.4 1448.8 1239.1 1342.5 1239.1 1069.5 c 0
 1239.1 876.9 1159.9 758.9 936.3 700.6 c 1
 1056.1 661 1104.7 578.4 1164.1 408.2 c 2
 1309.1 0 l 1
 1041 0 l 1
 897.9 417.2 l 1
 846.7 570.3 774.2 639.4 643.9 639.4 c 2
 438.7 639.4 l 1
 438.7 0 l 1
 188.4 0 l 1
EndSplineSet
EndChar

StartChar: S
Encoding: 83 83 18
Width: 1289
VWidth: 0
Flags: HW
LayerCount: 2
UndoRedoHistory
Layer: 1
Undoes
EndUndoes
Redoes
EndRedoes
EndUndoRedoHistory
Fore
SplineSet
694.013017685 -22 m 0
 509.713017685 -22 297.413017685 33.2 158.913017685 121.2 c 1
 214.813017685 326.8 l 1
 386.313017685 228.4 550.113017685 192.3 683.513017685 192.3 c 0
 865.213017685 192.3 947.713017685 274.1 947.713017685 386.6 c 0
 947.713017685 487.4 920.313017685 550.4 563.613017685 654.8 c 1
 227.913017685 751 150.813017685 887.6 151.213017685 1064 c 0
 151.613017685 1282.3 294.813017685 1471.3 664.213017685 1471.3 c 0
 823.713017685 1471.3 994.213017685 1429 1128.51301769 1346.4 c 1
 1060.31301768 1157.7 l 1
 935.713017685 1225 802.813017685 1256.6 682.413017685 1256.6 c 0
 470.113017685 1256.6 406.813017685 1189.1 406.213017685 1087.6 c 0
 405.613017685 983.9 431.513017685 943.7 708.713017685 854.8 c 0
 1077.51301769 736.9 1183.91301768 635.6 1178.51301769 391.4 c 0
 1174.01301769 164.2 1029.01301769 -22 694.013017685 -22 c 0
EndSplineSet
EndChar

StartChar: T
Encoding: 84 84 19
Width: 1217
VWidth: 0
Flags: HW
LayerCount: 2
UndoRedoHistory
Layer: 1
Undoes
EndUndoes
Redoes
EndRedoes
EndUndoRedoHistory
Fore
SplineSet
484 0 m 1
 484 1254 l 1
 53.7 1254 l 1
 53.7 1448.8 l 1
 1164.9 1448.8 l 1
 1164.9 1254 l 1
 733.4 1254 l 1
 733.4 0 l 1
 484 0 l 1
EndSplineSet
EndChar

StartChar: U
Encoding: 85 85 20
Width: 1579
VWidth: 0
Flags: HW
LayerCount: 2
UndoRedoHistory
Layer: 1
Undoes
EndUndoes
Redoes
EndRedoes
EndUndoRedoHistory
Fore
SplineSet
802.1 -22 m 0
 418.1 -22 168.5 202.9 168.5 546.4 c 2
 168.5 1448.8 l 1
 417.9 1448.8 l 1
 417.9 551.4 l 2
 417.9 330.2 568.6 192.3 801 192.3 c 0
 1020.6 192.3 1162.3 329.4 1162.3 544.4 c 2
 1162.3 1448.8 l 1
 1411.6 1448.8 l 1
 1411.6 557.3 l 2
 1411.4 210.8 1171.3 -22 802.1 -22 c 0
EndSplineSet
EndChar

StartChar: V
Encoding: 86 86 21
Width: 1388
VWidth: 0
Flags: HW
LayerCount: 2
UndoRedoHistory
Layer: 1
Undoes
EndUndoes
Redoes
EndRedoes
EndUndoRedoHistory
Fore
SplineSet
563 0.1 m 1
 4 1448.8 l 1
 270.3 1448.8 l 1
 590 599.5 l 1
 698.1 309.1 l 1
 799.2 598.5 l 1
 1110.4 1448.8 l 1
 1384.3 1448.8 l 1
 831.8 0.1 l 1
 563 0.1 l 1
EndSplineSet
EndChar

StartChar: W
Encoding: 87 87 22
Width: 2208
VWidth: 0
Flags: HW
LayerCount: 2
UndoRedoHistory
Layer: 1
Undoes
EndUndoes
Redoes
EndRedoes
EndUndoRedoHistory
Fore
SplineSet
1496.9 0 m 1
 1105.7 1070.6 l 1
 712.5 0.1 l 1
 492.3 0.1 l 1
 43.2 1448.8 l 1
 291.3 1448.8 l 1
 546.4 587.5 l 1
 610.5 365.4 l 1
 692.9 587.5 l 1
 1021.6 1448.8 l 1
 1200.8 1448.8 l 1
 1527.4 583.5 l 1
 1604.9 366.4 l 1
 1673.9 587.5 l 1
 1923.1 1448.8 l 1
 2165.2 1448.8 l 1
 1717 0 l 1
 1496.9 0 l 1
EndSplineSet
EndChar

StartChar: X
Encoding: 88 88 23
Width: 1384
VWidth: 0
Flags: HW
LayerCount: 2
UndoRedoHistory
Layer: 1
Undoes
EndUndoes
Redoes
EndRedoes
EndUndoRedoHistory
Fore
SplineSet
-5.2 0 m 1
 558.8 747.3 l 1
 42.8 1448.8 l 1
 319.2 1448.8 l 1
 716.9 899.9 l 1
 1122.2 1448.8 l 1
 1387.5 1448.8 l 1
 850.4 719.5 l 1
 1373.2 0 l 1
 1109.2 0 l 1
 692.1 567.2 l 1
 261.8 0 l 1
 -5.2 0 l 1
EndSplineSet
EndChar

StartChar: Y
Encoding: 89 89 24
Width: 1288
VWidth: 0
Flags: HW
LayerCount: 2
UndoRedoHistory
Layer: 1
Undoes
EndUndoes
Redoes
EndRedoes
EndUndoRedoHistory
Fore
SplineSet
505.5 0 m 1
 505.5 580.2 l 1
 9.4 1448.8 l 1
 271.5 1448.8 l 1
 637.7 781.9 l 1
 1026.8 1448.8 l 1
 1279 1448.8 l 1
 764.8 582.3 l 1
 764.8 0 l 1
 505.5 0 l 1
EndSplineSet
EndChar

StartChar: Z
Encoding: 90 90 25
Width: 1284
VWidth: 0
Flags: HW
LayerCount: 2
UndoRedoHistory
Layer: 1
Undoes
EndUndoes
Redoes
EndRedoes
EndUndoRedoHistory
Fore
SplineSet
99.2 0 m 1
 99.2 187.4 l 1
 895.9 1254 l 1
 130.3 1254 l 1
 130.3 1448.8 l 1
 1186.4 1448.8 l 1
 1186.4 1278 l 1
 392 194.8 l 1
 1178.4 194.8 l 1
 1178.4 0 l 1
 99.2 0 l 1
EndSplineSet
EndChar

StartChar: a
Encoding: 97 97 26
Width: 1277
VWidth: 0
Flags: HW
LayerCount: 2
UndoRedoHistory
Layer: 1
Undoes
EndUndoes
Redoes
EndRedoes
EndUndoRedoHistory
Fore
SplineSet
550.8 168.2 m 0
 718.1 168.2 834.7 274.5 834.7 422.4 c 2
 834.7 792.8 l 1
 793.6 814.7 721.9 828.7 662.1 828.7 c 0
 469.6 828.7 333.8 665.4 333.8 435.4 c 0
 333.8 278.7 423.8 168.2 550.8 168.2 c 0
531.2 -22 m 0
 269.5 -22 93.6 163.8 93.6 426.3 c 0
 93.6 774.3 332.6 1019.2 674.1 1019.2 c 0
 811.7 1019.2 974.5 968.1 1068.9 911.6 c 1
 1068.9 328.3 l 2
 1068.9 249.3 1140.5 192.1 1232.6 192.1 c 1
 1158.1 -7.6 l 1
 1014.2 -7.6 897.8 64 871.2 160.6 c 1
 815.8 54.8 673 -22 531.2 -22 c 0
EndSplineSet
EndChar

StartChar: ampersand
Encoding: 38 38 27
Width: 2774
VWidth: 0
Flags: HW
LayerCount: 2
UndoRedoHistory
Layer: 1
Undoes
EndUndoes
Redoes
EndRedoes
EndUndoRedoHistory
Fore
SplineSet
784.3 1047.6 m 1
 882.8 1098.9 985.3 1162.8 1037.5 1257.4 c 0
 1053.3 1286 1062.1 1315.6 1062.1 1348.1 c 0
 1062.1 1474.2 958.8 1535.3 834.6 1535.3 c 0
 707.5 1535.3 607 1475.2 607 1348.1 c 0
 607 1242.7 659.2 1174.7 711.5 1117.6 c 0
 733.2 1094.9 757.7 1072.2 784.3 1047.6 c 1
821.8 119.6 m 0
 1042.4 119.6 1172.5 213.2 1284.8 322.5 c 1
 1282.8 322.5 1272.1 330.4 1257.2 345.2 c 0
 1179.4 420 1093.6 511.6 1013.8 591.4 c 2
 747.9 853.5 l 1
 621.8 788.5 493.7 716.6 430.7 589.5 c 0
 411.9 550.1 402.1 505.7 402.1 455.5 c 0
 402.1 285.1 521.3 189.5 653.3 145.2 c 0
 704.5 128.4 760.7 119.6 821.8 119.6 c 0
825.7 -45 m 0
 547.9 -45 337.1 57.5 240.6 240.7 c 0
 208.1 301.8 194.2 372.7 194.2 450.6 c 0
 194.2 591.4 255.4 687.1 330.2 762.9 c 0
 412 846.6 524.2 913.6 632.6 971.7 c 1
 552.8 1051.5 467.1 1128.4 425.7 1241.7 c 0
 412.9 1275.2 407 1313.5 407 1353.9 c 0
 407 1583.5 595.2 1689.9 825.7 1689.9 c 0
 1009.9 1689.9 1151.8 1621 1221.8 1505.7 c 0
 1247.4 1463.4 1259.2 1416.1 1259.2 1359.9 c 0
 1259.2 1253.5 1206.9 1175.7 1150.8 1116.5 c 1
 1084.8 1044.6 995.1 984.6 904.5 936.3 c 1
 1384.3 446.6 l 1
 1461.2 556.9 1520.3 700.8 1546.9 860.4 c 0
 1555.7 911.6 1559.7 959.9 1559.7 1008.2 c 1
 1752.8 984.5 l 1
 1742.9 708.7 1647.3 479.2 1518.3 314.6 c 1
 1604 226.9 1679.8 159 1805 117.6 c 1
 1841.4 106.7 1884.7 95.9 1933 85.1 c 1
 1779.4 -28.2 l 1
 1608 -2.6 1513.4 101.8 1409.9 201.3 c 1
 1272 66.4 1094.7 -45 825.7 -45 c 0
EndSplineSet
EndChar

StartChar: asciicircum
Encoding: 94 94 28
Width: 1276
VWidth: 0
Flags: HW
LayerCount: 2
UndoRedoHistory
Layer: 1
Undoes
EndUndoes
Redoes
EndRedoes
EndUndoRedoHistory
Fore
SplineSet
103.9 568 m 1
 583.1 1446.4 l 1
 684.1 1446.4 l 1
 1170.4 568 l 1
 971.3 568 l 1
 631.2 1184.4 l 1
 304.9 568 l 1
 103.9 568 l 1
EndSplineSet
EndChar

StartChar: asterisk
Encoding: 42 42 29
Width: 1812
VWidth: 0
Flags: HW
LayerCount: 2
UndoRedoHistory
Layer: 1
Undoes
EndUndoes
Redoes
EndRedoes
EndUndoRedoHistory
Fore
SplineSet
902.4 1242.4 m 1
 720.1 1549.8 l 1
 542.8 1251.3 l 1
 399 1338 l 1
 620.6 1613.8 l 1
 304.4 1703.5 l 1
 329 1860.1 l 1
 657.1 1717.3 l 1
 642.3 1833.5 624.6 1952.7 609.8 2068 c 1
 774.3 2068 l 1
 774.3 1723.2 l 1
 1045.3 1863.1 l 1
 1120.1 1719.2 l 1
 815.7 1617.7 l 1
 1048.2 1327.1 l 1
 902.4 1242.4 l 1
EndSplineSet
EndChar

StartChar: at
Encoding: 64 64 30
Width: 1952
VWidth: 0
Flags: HW
LayerCount: 2
UndoRedoHistory
Layer: 1
Undoes
EndUndoes
Redoes
EndRedoes
EndUndoRedoHistory
Fore
SplineSet
901.5 414.7 m 0
 1020.1 414.7 1158.4 560.8 1158.4 821 c 0
 1158.4 928.8 1105.3 979.1 1034.3 979.1 c 0
 911.7 979.1 759.7 829.9 759.7 601.8 c 0
 759.7 477.6 822.4 414.7 901.5 414.7 c 0
1020.4 -110.8 m 0
 557.5 -110.8 142.9 171.9 142.9 674.5 c 0
 142.9 1227.6 592.9 1467.9 1033.4 1467.9 c 0
 1432.9 1467.9 1809.8 1239.2 1809.8 785.6 c 0
 1809.8 468.3 1627.6 248.4 1358.5 248.4 c 0
 1244.5 248.4 1136.2 302.1 1133.4 424.5 c 1
 1057.4 308.5 951 252.5 844.9 252.5 c 0
 674.8 252.5 529.8 394.9 529.8 623.5 c 0
 529.8 900.3 764.1 1130.8 987.3 1130.8 c 0
 1076.2 1130.8 1159.3 1095.5 1224.4 1014.8 c 1
 1261.3 1099.8 l 1
 1441.5 1099.8 l 1
 1359.6 741.6 1305.5 498.8 1305.5 476.5 c 0
 1305.5 416.9 1343.8 380.6 1395.7 380.6 c 0
 1493.6 380.6 1613.6 507 1613.6 790.6 c 0
 1613.6 1126.6 1331.4 1301.2 1031.1 1301.2 c 0
 702.6 1301.2 370.4 1089.7 370.4 678.8 c 0
 370.4 265.7 693 57 1048.8 57 c 0
 1203.8 57 1357.8 96.8 1492.6 171.3 c 1
 1581.6 39.2 l 1
 1411.3 -60.2 1215 -110.8 1020.4 -110.8 c 0
EndSplineSet
EndChar

StartChar: b
Encoding: 98 98 31
Width: 1310
VWidth: 0
Flags: HW
LayerCount: 2
UndoRedoHistory
Layer: 1
Undoes
EndUndoes
Redoes
EndRedoes
EndUndoRedoHistory
Fore
SplineSet
674.4 168.2 m 0
 857.9 168.2 974.3 314.5 974.3 526.6 c 0
 974.3 707.9 872.7 828.4 722.9 828.4 c 0
 608.5 828.4 478.7 743.6 400.7 614.9 c 1
 400.7 201 l 1
 400.7 201 515.9 168.2 674.4 168.2 c 0
689.4 -22 m 0
 379.8 -22 165.5 69.2 164.6 69.2 c 2
 164.6 1518.4 l 1
 400.7 1547.5 l 1
 400.7 844.7 l 1
 472.7 950.7 620.8 1018.9 768.8 1018.9 c 0
 1034 1018.9 1215.4 825.2 1215.4 529.7 c 0
 1215.4 199.7 1005.5 -22 689.4 -22 c 0
EndSplineSet
EndChar

StartChar: backslash
Encoding: 92 92 32
Width: 1200
VWidth: 0
Flags: HW
LayerCount: 2
UndoRedoHistory
Layer: 1
Undoes
EndUndoes
Redoes
EndRedoes
EndUndoRedoHistory
Fore
SplineSet
794.7 -21.5 m 1
 178 1448.3 l 1
 408 1448.3 l 1
 1022.5 -21.5 l 1
 794.7 -21.5 l 1
EndSplineSet
EndChar

StartChar: bracketleft
Encoding: 91 91 33
Width: 880
VWidth: 0
Flags: HW
LayerCount: 2
UndoRedoHistory
Layer: 1
Undoes
EndUndoes
Redoes
EndRedoes
EndUndoRedoHistory
Fore
SplineSet
241.4 -218.5 m 1
 241.4 1484.3 l 1
 682.9 1484.3 l 1
 682.9 1355.1 l 1
 490.8 1355.1 l 1
 490.8 -90.2 l 1
 683 -90.2 l 1
 683 -218.5 l 1
 241.4 -218.5 l 1
EndSplineSet
EndChar

StartChar: bracketright
Encoding: 93 93 34
Width: 1057
VWidth: 0
Flags: HW
LayerCount: 2
UndoRedoHistory
Layer: 1
Undoes
EndUndoes
Redoes
EndRedoes
EndUndoRedoHistory
Fore
SplineSet
158.1 -234.7 m 1
 158.1 -106.4 l 1
 350.9 -106.4 l 1
 350.9 1338.9 l 1
 159.1 1338.9 l 1
 158.1 1468.1 l 1
 599.5 1468.1 l 1
 599.5 -234.7 l 1
 158.1 -234.7 l 1
EndSplineSet
EndChar

StartChar: c
Encoding: 99 99 35
Width: 1095
VWidth: 0
Flags: HW
LayerCount: 2
UndoRedoHistory
Layer: 1
Undoes
EndUndoes
Redoes
EndRedoes
EndUndoRedoHistory
Fore
SplineSet
634.1 -22.1 m 0
 282.9 -22.1 91 230.8 91 499.4 c 0
 91 801.6 335.3 1019.4 635.6 1019.4 c 0
 752.1 1019.4 890.6 987.8 995.7 907.4 c 1
 925.8 733.3 l 1
 829.2 796.3 735.8 824.1 653.4 824.1 c 0
 458.7 824.1 332.1 681.4 332.1 500.8 c 0
 332.1 320.2 448.3 168.5 652 168.5 c 0
 773.5 168.5 878.5 222.1 949.8 284.8 c 1
 1025.7 104.8 l 1
 913.8 17.5 766.9 -22.1 634.1 -22.1 c 0
EndSplineSet
EndChar

StartChar: colon
Encoding: 58 58 36
Width: 909
VWidth: 0
Flags: HW
LayerCount: 2
UndoRedoHistory
Layer: 1
Undoes
EndUndoes
Redoes
EndRedoes
EndUndoRedoHistory
Fore
SplineSet
267.9 966.1 m 1
 267.9 1209.4 l 1
 519.1 1209.4 l 1
 519.1 966.1 l 1
 267.9 966.1 l 1
267.9 -19.1 m 1
 267.9 224.2 l 1
 519.1 224.2 l 1
 519.1 -19.1 l 1
 267.9 -19.1 l 1
EndSplineSet
EndChar

StartChar: comma
Encoding: 44 44 37
Width: 523
VWidth: 0
Flags: HW
LayerCount: 2
UndoRedoHistory
Layer: 1
Undoes
EndUndoes
Redoes
EndRedoes
EndUndoRedoHistory
Fore
SplineSet
60 -323.5 m 1
 183.2 212.4 l 1
 426 212.4 l 1
 238.7 -323.5 l 1
 60 -323.5 l 1
EndSplineSet
EndChar

StartChar: d
Encoding: 100 100 38
Width: 1308
VWidth: 0
Flags: HW
LayerCount: 2
UndoRedoHistory
Layer: 1
Undoes
EndUndoes
Redoes
EndRedoes
EndUndoRedoHistory
Fore
SplineSet
602.4 168.2 m 0
 782 168.2 900.7 311.3 900.7 519.6 c 2
 900.7 717 l 1
 850 784.6 740.9 828.7 635.4 828.7 c 0
 453.5 828.7 336.5 693.3 336.5 493.5 c 0
 336.5 298.3 443.2 168.2 602.4 168.2 c 0
581.7 -22 m 0
 290.6 -22 95.4 182.4 95.4 487.5 c 0
 95.4 805.5 301.5 1019.2 616.8 1019.2 c 0
 721.8 1019.2 825.7 984.9 900.6 927.8 c 1
 900.6 1528.5 l 1
 1136.7 1542.2 l 1
 1136.7 389.1 l 2
 1136.7 233.1 1167.1 94 1213.9 27.1 c 1
 988.9 -13.9 l 1
 954.5 38.3 925.7 102 916.3 148.2 c 1
 862.6 45.7 734.6 -22 581.7 -22 c 0
EndSplineSet
EndChar

StartChar: dollar
Encoding: 36 36 39
Width: 2010
VWidth: 0
Flags: HW
LayerCount: 2
UndoRedoHistory
Layer: 1
Undoes
EndUndoes
Redoes
EndRedoes
EndUndoRedoHistory
Fore
SplineSet
689.3 854.9 m 1
 692.2 1404.6 l 1
 553.3 1386.9 451.8 1289.3 451.8 1134.6 c 0
 451.8 965.2 565.2 901.2 689.3 854.9 c 1
830.2 59.9 m 1
 950.4 76.6 1047.8 131.7 1093.2 221.4 c 0
 1108 251.9 1116.8 285.4 1116.8 322.9 c 0
 1116.8 495.3 959.2 556.3 835.1 609.5 c 1
 830.2 59.9 l 1
694.2 -289.9 m 1
 689.3 -109.6 l 1
 528.7 -106.6 410.5 -62.3 308 11.6 c 1
 364.2 167.2 l 1
 450.8 110 560.3 61.8 687.4 55.9 c 1
 692.2 658.8 l 1
 525.7 733.6 352.3 802.6 269.6 955.3 c 0
 245.9 1000.7 233.1 1055.8 233.1 1119.9 c 0
 233.1 1255.8 299.2 1360.2 373.1 1430.2 c 0
 449.9 1502.1 561.2 1562.1 692.2 1572 c 1
 687.3 1730.7 l 1
 830.2 1730.7 l 1
 834.1 1573.1 l 1
 996.7 1570.1 1134.6 1521.8 1227.2 1443 c 1
 1171 1295.2 l 1
 1089.3 1368.1 977 1407.5 835.1 1411.5 c 1
 833.1 799.7 l 1
 975 744.5 1101.1 692.3 1198.6 607.6 c 0
 1274.5 541.6 1322.8 460.8 1322.8 325.9 c 0
 1322.8 113.1 1180.9 -5.2 1021.3 -63.3 c 0
 962.2 -85 899.1 -96.9 833.1 -103.7 c 1
 837 -289.9 l 1
 694.2 -289.9 l 1
EndSplineSet
EndChar

StartChar: e
Encoding: 101 101 40
Width: 1146
VWidth: 0
Flags: HW
LayerCount: 2
UndoRedoHistory
Layer: 1
Undoes
EndUndoes
Redoes
EndRedoes
EndUndoRedoHistory
Fore
SplineSet
333.3 515.2 m 1
 621.5 519.6 786.6 606.6 786.6 725.3 c 0
 786.6 792.9 728.4 838.6 638.9 838.6 c 0
 479.2 838.6 337.5 716.7 333 528.2 c 0
 333 526.8 333.1 516.8 333.3 515.2 c 1
648.7 -22 m 0
 317.7 -22 95.4 185.2 95.4 500.7 c 0
 95.4 791.6 330.5 1019.2 647.8 1019.2 c 0
 876.4 1019.2 1016.2 902.7 1016.2 731.2 c 0
 1016.2 502.4 771.1 354.8 356.1 349.4 c 1
 396.1 238.8 516.9 168.2 652.3 168.2 c 0
 775.1 168.2 913.4 221.9 999.3 306 c 1
 1086.8 142.4 l 1
 975.1 43 801.5 -22 648.7 -22 c 0
EndSplineSet
EndChar

StartChar: eight
Encoding: 56 56 41
Width: 1291
VWidth: 0
Flags: HW
LayerCount: 2
UndoRedoHistory
Layer: 1
Undoes
EndUndoes
Redoes
EndRedoes
EndUndoRedoHistory
Fore
SplineSet
651 860.7 m 1
 779.2 883.4 879.5 966.8 879.5 1096.2 c 0
 879.5 1217.1 779.1 1270.5 651 1270.5 c 0
 512.7 1270.5 419.8 1208.6 419.8 1096.2 c 0
 419.8 966.8 521 883.4 651 860.7 c 1
651 179.4 m 0
 806.8 179.4 901.4 251.4 901.4 381.9 c 0
 901.4 526.6 779.2 616 651 640.8 c 1
 509.8 614 398.8 515.3 398.8 381.9 c 0
 398.8 243.4 503.4 179.4 651 179.4 c 0
646.5 -22 m 0
 345.1 -22 143.5 125.8 143.5 374.3 c 0
 143.5 589.1 272.4 706.8 414.5 759.8 c 1
 285.3 808.8 176.7 913.6 176.7 1100.3 c 0
 176.7 1346.8 375.5 1471.3 646.5 1471.3 c 0
 956.1 1471.3 1117.2 1300.9 1117.2 1100.3 c 0
 1117.2 922.6 1005.9 808.8 876.7 759.8 c 1
 1020.6 706.8 1148.6 589.1 1148.6 374.3 c 0
 1148.6 92.9 936 -22 646.5 -22 c 0
EndSplineSet
EndChar

StartChar: equal
Encoding: 61 61 42
Width: 1291
VWidth: 0
Flags: HW
LayerCount: 2
UndoRedoHistory
Layer: 1
Undoes
EndUndoes
Redoes
EndRedoes
EndUndoRedoHistory
Fore
SplineSet
213.2 848.6 m 1
 213.2 991.1 l 1
 1077.9 991.1 l 1
 1077.9 848.6 l 1
 213.2 848.6 l 1
214.2 445.3 m 1
 214.2 585 l 1
 1078 585 l 1
 1078 445.3 l 1
 214.2 445.3 l 1
EndSplineSet
EndChar

StartChar: exclam
Encoding: 33 33 43
Width: 758
VWidth: 0
Flags: HW
LayerCount: 2
UndoRedoHistory
Layer: 1
Undoes
EndUndoes
Redoes
EndRedoes
EndUndoRedoHistory
Fore
SplineSet
310.2 503.5 m 1
 223.2 1679.2 l 1
 524.5 1679.2 l 1
 434.9 503.5 l 1
 310.2 503.5 l 1
378.8 -0.6 m 0
 277 -0.6 205.5 72.1 205.5 170.8 c 0
 205.5 267.8 280.5 337.6 379.8 337.6 c 0
 480.7 337.6 553.1 265.8 553.1 168 c 0
 553.1 70.1 478.1 -0.6 378.8 -0.6 c 0
EndSplineSet
EndChar

StartChar: f
Encoding: 102 102 44
Width: 794
VWidth: 0
Flags: HW
LayerCount: 2
UndoRedoHistory
Layer: 1
Undoes
EndUndoes
Redoes
EndRedoes
EndUndoRedoHistory
Fore
SplineSet
129.7 -408 m 1
 108.7 -218.6 l 1
 240.5 -218.6 288.1 -158.9 288.1 -20.5 c 2
 288.1 851.5 l 1
 91.5 851.5 l 1
 91.5 999 l 1
 288.1 999 l 1
 288.1 1122.3 l 2
 288.1 1362.7 437.1 1476.2 622.9 1476.2 c 0
 680.5 1476.2 756.7 1464.3 810.8 1443.2 c 1
 786.8 1284.9 l 1
 754.3 1293.9 724.4 1296.5 696.5 1296.5 c 0
 591.2 1296.5 523.2 1243.2 523.2 1093.1 c 2
 523.2 999 l 1
 738.8 999 l 1
 738.8 851.5 l 1
 523.2 851.5 l 1
 523.2 -11 l 2
 523.2 -273.8 402.6 -408 129.7 -408 c 1
EndSplineSet
EndChar

StartChar: five
Encoding: 53 53 45
Width: 1291
VWidth: 0
Flags: HW
LayerCount: 2
UndoRedoHistory
Layer: 1
Undoes
EndUndoes
Redoes
EndRedoes
EndUndoRedoHistory
Fore
SplineSet
187.8 159.5 m 1
 276.9 346.6 l 1
 388.9 230.5 507.9 181.2 613.8 180.3 c 0
 810.6 180.3 891.3 306 891.3 458.3 c 0
 891.3 639.8 775.2 733.7 644.7 735.5 c 1
 562 735.5 488.6 717.1 418.9 645.4 c 1
 243.8 647.8 l 1
 243.8 1409.2 l 1
 1017.4 1409.2 l 1
 1017.4 1215.6 l 1
 468.9 1215.6 l 1
 454 845.8 l 1
 500.3 881.3 556.7 926.6 692.4 926.6 c 0
 908.8 926.6 1126.8 766 1126.8 434.6 c 0
 1126.8 146 887.5 -28.3 619.4 -31 c 1
 455.4 -31 296.2 29.8 187.8 159.5 c 1
EndSplineSet
EndChar

StartChar: four
Encoding: 52 52 46
Width: 1291
VWidth: 0
Flags: HW
LayerCount: 2
UndoRedoHistory
Layer: 1
Undoes
EndUndoes
Redoes
EndRedoes
EndUndoRedoHistory
Fore
SplineSet
372.9 516.3 m 1
 715 516.3 l 1
 715 1127 l 1
 592.5 897.6 l 1
 372.9 516.3 l 1
715 0 m 1
 715 324.9 l 1
 148.8 324.9 l 1
 148.8 509.2 l 1
 688.9 1448.8 l 1
 958.1 1448.8 l 1
 958.1 516.3 l 1
 1146 516.3 l 1
 1146 324.9 l 1
 958.1 324.9 l 1
 958.1 0 l 1
 715 0 l 1
EndSplineSet
EndChar

StartChar: g
Encoding: 103 103 47
Width: 1215
VWidth: 0
Flags: HW
LayerCount: 2
UndoRedoHistory
Layer: 1
Undoes
EndUndoes
Redoes
EndRedoes
EndUndoRedoHistory
Fore
SplineSet
553.5 168.2 m 0
 720.8 168.2 837.4 274.5 837.4 422.4 c 2
 837.4 795.5 l 1
 796.3 817.4 724.6 828.7 664.8 828.7 c 0
 472.3 828.7 336.5 665.4 336.5 435.4 c 0
 336.5 278.7 426.5 168.2 553.5 168.2 c 0
515.1 -538.1 m 0
 396.1 -538.1 247.7 -506.9 145.8 -457.3 c 1
 190 -262 l 1
 272.1 -302.6 385.1 -330.9 474.1 -330.9 c 0
 684 -330.9 823.9 -205 823.9 -17.9 c 2
 823.9 94.3 l 1
 754.3 24.6 643.5 -22 533.9 -22 c 0
 272.2 -22 95.4 162.9 95.4 425.4 c 0
 95.4 773.4 335.3 1019.2 676.8 1019.2 c 0
 814.4 1019.2 977.2 968.1 1071.6 911.6 c 1
 1071.6 -8.6 l 2
 1071.6 -326.7 848.3 -538.1 515.1 -538.1 c 0
EndSplineSet
EndChar

StartChar: grave
Encoding: 96 96 48
Width: 998
VWidth: 0
Flags: HW
LayerCount: 2
UndoRedoHistory
Layer: 1
Undoes
EndUndoes
Redoes
EndRedoes
EndUndoRedoHistory
Fore
SplineSet
236.7 1974.8 m 1
 -93.5 2293 l 1
 173.6 2293 l 1
 419.7 1974.8 l 1
 236.7 1974.8 l 1
EndSplineSet
EndChar

StartChar: greater
Encoding: 62 62 49
Width: 1454
VWidth: 0
Flags: HW
LayerCount: 2
UndoRedoHistory
Layer: 1
Undoes
EndUndoes
Redoes
EndRedoes
EndUndoRedoHistory
Fore
SplineSet
275.3 97.6 m 1
 275.3 250.7 l 1
 1061.6 592.8 l 1
 281.2 962 l 1
 281.2 1114 l 1
 1281.7 631.8 l 1
 1281.7 542.8 l 1
 275.3 97.6 l 1
EndSplineSet
EndChar

StartChar: h
Encoding: 104 104 50
Width: 1306
VWidth: 0
Flags: HW
LayerCount: 2
UndoRedoHistory
Layer: 1
Undoes
EndUndoes
Redoes
EndRedoes
EndUndoRedoHistory
Fore
SplineSet
1219.1 -36.1 m 1
 958.8 -86.1 878.3 28.2 878.5 230.9 c 2
 878.7 550.3 l 2
 878.7 712.2 812.2 814.3 669 814.3 c 0
 492.7 814.3 408.7 696.9 408.7 564.4 c 2
 408.7 0 l 1
 168.2 0 l 1
 168.2 1513.2 l 1
 408.7 1544 l 1
 408.7 901.1 l 1
 492.9 977.3 609.6 1019.2 715.7 1019.2 c 0
 956.7 1019.2 1113.3 845.4 1113 571.3 c 2
 1112.8 319.1 l 2
 1112.7 192.2 1120.1 131.9 1243.2 150.5 c 1
 1219.1 -36.1 l 1
EndSplineSet
EndChar

StartChar: hyphen
Encoding: 45 45 51
Width: 1291
VWidth: 0
Flags: HW
LayerCount: 2
UndoRedoHistory
Layer: 1
Undoes
EndUndoes
Redoes
EndRedoes
EndUndoRedoHistory
Fore
SplineSet
240.6 655 m 1
 240.6 820.5 l 1
 1050.8 820.5 l 1
 1050.8 655 l 1
 240.6 655 l 1
EndSplineSet
EndChar

StartChar: i
Encoding: 105 105 52
Width: 721
VWidth: 0
Flags: HW
LayerCount: 2
UndoRedoHistory
Layer: 1
Undoes
EndUndoes
Redoes
EndRedoes
EndUndoRedoHistory
Fore
SplineSet
288.8 1182.9 m 0
 195.2 1182.9 127.8 1243 127.8 1332.4 c 0
 127.8 1421.8 195.3 1481.8 290.7 1481.8 c 0
 383.4 1481.8 451.7 1419.9 451.7 1331.4 c 0
 451.7 1242.9 383.3 1182.9 288.8 1182.9 c 0
707.8 36.8 m 1
 477.6 -65.4 167 -21.7 167 275.5 c 2
 167 999 l 1
 403 999 l 1
 403 331.8 l 2
 403 154.1 537.1 165.3 677.6 214.3 c 1
 707.8 36.8 l 1
EndSplineSet
EndChar

StartChar: j
Encoding: 106 106 53
Width: 663
VWidth: 0
Flags: HW
LayerCount: 2
UndoRedoHistory
Layer: 1
Undoes
EndUndoes
Redoes
EndRedoes
EndUndoRedoHistory
Fore
SplineSet
355.7 1176.6 m 0
 263 1176.6 194.7 1238.5 194.7 1326.1 c 0
 194.7 1415.5 263.1 1477.3 357.6 1477.3 c 0
 451.2 1477.3 519.5 1415.4 519.5 1325.1 c 0
 519.5 1237.5 451.1 1176.6 355.7 1176.6 c 0
126.2 -494.5 m 0
 71.2 -494.5 12.3 -486.3 -54 -471 c 1
 -22.4 -283.6 l 1
 39.7 -293.2 77.5 -297.8 86.2 -297.8 c 0
 190.3 -297.8 249.3 -219.1 249.3 -46.6 c 2
 249.3 999 l 1
 485.3 999 l 1
 485.3 -39.7 l 2
 485.3 -348.1 362.9 -494.5 126.2 -494.5 c 0
EndSplineSet
EndChar

StartChar: k
Encoding: 107 107 54
Width: 1206
VWidth: 0
Flags: HW
LayerCount: 2
UndoRedoHistory
Layer: 1
Undoes
EndUndoes
Redoes
EndRedoes
EndUndoRedoHistory
Fore
SplineSet
1163.6 -20.2 m 1
 999.7 -20.2 918.5 -21.1 801.6 144 c 2
 649.6 359.7 l 1
 381.6 32.4 l 1
 303.3 -66.9 162.8 -28.7 162.8 96 c 2
 162.8 1511.3 l 1
 397 1532.3 l 1
 397 379.3 l 1
 856.3 990.9 l 1
 1080 942.7 l 1
 784.8 527.6 l 1
 950.2 296.9 l 2
 1034.6 179.3 1090.6 159.1 1205.3 177.1 c 1
 1163.6 -20.2 l 1
EndSplineSet
EndChar

StartChar: l
Encoding: 108 108 55
Width: 738
VWidth: 0
Flags: HW
LayerCount: 2
UndoRedoHistory
Layer: 1
Undoes
EndUndoes
Redoes
EndRedoes
EndUndoRedoHistory
Fore
SplineSet
726.5 211.4 m 1
 751.5 28.7 l 1
 665.2 3.6 582.3 -11.7 505.6 -11.7 c 0
 307.9 -11.7 164.4 83 164.4 300.9 c 2
 164.4 1523 l 1
 400.4 1552.1 l 1
 400.4 346.9 l 2
 400.4 232.8 460.2 182.7 556.7 182.7 c 0
 602.9 182.7 677.8 195.2 726.5 211.4 c 1
EndSplineSet
EndChar

StartChar: less
Encoding: 60 60 56
Width: 2456
VWidth: 0
Flags: HW
LayerCount: 2
UndoRedoHistory
Layer: 1
Undoes
EndUndoes
Redoes
EndRedoes
EndUndoRedoHistory
Fore
SplineSet
1368.8 80.4 m 1
 369.3 538.6 l 1
 369.3 625.6 l 1
 1372.8 1094.9 l 1
 1372.8 943.7 l 1
 587.4 582.6 l 1
 1368.8 232.4 l 1
 1368.8 80.4 l 1
EndSplineSet
EndChar

StartChar: m
Encoding: 109 109 57
Width: 1969
VWidth: 0
Flags: HW
LayerCount: 2
UndoRedoHistory
Layer: 1
Undoes
EndUndoes
Redoes
EndRedoes
EndUndoRedoHistory
Fore
SplineSet
1886.7 -1.9 m 1
 1625.5 -49.9 1541.2 64.4 1541.4 267.1 c 2
 1541.4 550.3 l 2
 1541.4 712.2 1478.9 814.3 1337.5 814.3 c 0
 1218.8 814.3 1108.2 727.5 1108.2 568 c 2
 1108.2 0 l 1
 873.9 0 l 1
 873.9 550.3 l 2
 873.9 730.2 793.3 814.3 669.9 814.3 c 0
 532.1 814.3 431.8 733.8 430.3 569.5 c 1
 430.3 0 l 1
 189.8 0 l 1
 189.8 618.9 l 2
 189.8 721.4 147.7 834.9 87.4 908 c 1
 317.6 996.3 l 1
 347.3 968.5 378.2 921.5 390.9 870.8 c 1
 469.1 968.2 598.5 1019.2 711.1 1019.2 c 0
 850 1019.2 960.4 952.5 1028.1 849.7 c 1
 1138.6 986.1 1271.6 1019.2 1377.7 1019.2 c 0
 1618.7 1019.2 1776 845.4 1775.7 571.3 c 2
 1775.7 355.3 l 2
 1775.6 228.4 1785.8 168.2 1909.9 184.7 c 1
 1886.7 -1.9 l 1
EndSplineSet
EndChar

StartChar: n
Encoding: 110 110 58
Width: 1305
VWidth: 0
Flags: HW
LayerCount: 2
UndoRedoHistory
Layer: 1
Undoes
EndUndoes
Redoes
EndRedoes
EndUndoRedoHistory
Fore
SplineSet
1245.8 173 m 1
 1222.6 -6.4 l 1
 1182.8 -13.7 1147.6 -17.3 1116 -17.3 c 0
 934.5 -17.3 873.3 92.7 873.3 265.6 c 2
 873.3 551.7 l 2
 873.3 713.6 794.2 814.3 670.8 814.3 c 0
 551 814.3 433.9 733.8 432.4 569.5 c 1
 432.4 0 l 1
 191.9 0 l 1
 191.9 618.9 l 2
 191.9 721.4 149.2 835.6 89.5 908 c 1
 319.5 996.3 l 1
 349.3 968.6 376.7 918.8 393 878 c 1
 467.4 968.1 591.9 1019.2 722.5 1019.2 c 0
 963.5 1019.2 1107.5 847.3 1107.5 573.2 c 2
 1107.5 342.5 l 2
 1107.5 227.5 1120.7 170.3 1209.5 170.3 c 0
 1220.7 170.3 1231.9 171.2 1245.8 173 c 1
EndSplineSet
EndChar

StartChar: nine
Encoding: 57 57 59
Width: 1291
VWidth: 0
Flags: HW
LayerCount: 2
UndoRedoHistory
Layer: 1
Undoes
EndUndoes
Redoes
EndRedoes
EndUndoRedoHistory
Fore
SplineSet
653.8 696 m 0
 801.7 696 939.8 798.2 939.8 995.6 c 0
 939.8 1180.4 801.1 1277.3 649.8 1277.3 c 0
 501.5 1277.3 353.6 1182.5 353.6 997.6 c 0
 353.6 803.9 499.7 696 653.8 696 c 0
585.3 -126.4 m 1
 385.4 -17.1 l 1
 724.2 521.9 l 1
 712.6 515.9 681.7 506.9 618.5 506.9 c 0
 335.7 506.9 123.1 718.6 123.1 985.1 c 0
 123.1 1309.9 382.1 1471.3 640.5 1471.3 c 0
 906.4 1471.3 1153.6 1301.5 1153.6 980.2 c 0
 1153.6 855.1 1063.3 645.3 979.5 508 c 1
 585.3 -126.4 l 1
EndSplineSet
EndChar

StartChar: numbersign
Encoding: 35 35 60
Width: 2093
VWidth: 0
Flags: HW
LayerCount: 2
UndoRedoHistory
Layer: 1
Undoes
EndUndoes
Redoes
EndRedoes
EndUndoRedoHistory
Fore
SplineSet
555.6 737.9 m 1
 861 737.9 l 1
 920.1 1057 l 1
 618.6 1057 l 1
 555.6 737.9 l 1
266 101.4 m 1
 363.5 593 l 1
 71.9 593 l 1
 84.7 737.9 l 1
 391.1 737.9 l 1
 409.8 847.2 429.5 949.6 449.2 1057 c 1
 146.8 1057 l 1
 162.5 1199.9 l 1
 473.9 1199.9 l 1
 565.5 1674.7 l 1
 734.9 1674.7 l 1
 645.3 1199.9 l 1
 946.8 1199.9 l 1
 1035.4 1674.7 l 1
 1204.8 1674.7 l 1
 1114.2 1199.9 l 1
 1393 1199.9 l 1
 1376.3 1057 l 1
 1087.6 1057 l 1
 1028.5 737.9 l 1
 1320.1 737.9 l 1
 1303.4 593 l 1
 1002.9 593 l 1
 907.3 101.4 l 1
 739.8 101.4 l 1
 831.5 593 l 1
 530 593 l 1
 435.4 101.4 l 1
 266 101.4 l 1
EndSplineSet
EndChar

StartChar: o
Encoding: 111 111 61
Width: 1252
VWidth: 0
Flags: HW
LayerCount: 2
UndoRedoHistory
Layer: 1
Undoes
EndUndoes
Redoes
EndRedoes
EndUndoRedoHistory
Fore
SplineSet
626.4 -22 m 0
 308.4 -22 96.4 185.6 96.4 497.5 c 0
 96.4 810.5 307.5 1019.2 625.4 1019.2 c 0
 943.8 1019.2 1156.3 812.4 1156.3 498.6 c 0
 1156.3 186.6 945.6 -22 626.4 -22 c 0
628.2 168.2 m 0
 801.3 168.2 916.1 300.1 916.1 497.5 c 0
 916.1 695 800.4 828.7 626.3 828.7 c 0
 452.7 828.7 336.6 694.9 336.6 497.3 c 0
 336.6 300 453.6 168.2 628.2 168.2 c 0
EndSplineSet
EndChar

StartChar: one
Encoding: 49 49 62
Width: 1014
VWidth: 0
Flags: HW
LayerCount: 2
UndoRedoHistory
Layer: 1
Undoes
EndUndoes
Redoes
EndRedoes
EndUndoRedoHistory
Fore
SplineSet
464.5 0 m 1
 464.5 1238.5 l 1
 398.5 1187.6 312.5 1140.5 206.5 1096.5 c 1
 148.4 1263.5 l 1
 264.4 1315.6 403.5 1397.8 470.6 1448.8 c 1
 722.9 1448.8 l 1
 722.9 0 l 1
 464.5 0 l 1
EndSplineSet
EndChar

StartChar: p
Encoding: 112 112 63
Width: 1324
VWidth: 0
Flags: HW
LayerCount: 2
UndoRedoHistory
Layer: 1
Undoes
EndUndoes
Redoes
EndRedoes
EndUndoRedoHistory
Fore
SplineSet
688.9 168.2 m 0
 866.6 168.2 987.4 304.7 987.4 504.8 c 0
 987.4 701.9 890 828.7 721.1 828.7 c 0
 540.9 828.7 413.4 659 413.4 418.7 c 2
 413.4 280.6 l 1
 459 213.4 572.9 168.2 688.9 168.2 c 0
173 -492.1 m 1
 173 620.8 l 2
 173 810.4 111.2 858.8 71 910.2 c 1
 300.9 997.2 l 1
 347.5 954.7 383.7 896.5 395.3 825.6 c 1
 463.8 953 616.6 1019.2 745.4 1019.2 c 0
 1026.1 1019.2 1228.5 825.2 1228.5 510.8 c 0
 1228.5 196.4 1020.4 -22 721.9 -22 c 0
 617.8 -22 492.2 15.6 415.3 69.8 c 1
 413.5 -490.3 l 1
 173 -492.1 l 1
EndSplineSet
EndChar

StartChar: percent
Encoding: 37 37 64
Width: 3344
VWidth: 0
Flags: HW
LayerCount: 2
UndoRedoHistory
Layer: 1
Undoes
EndUndoes
Redoes
EndRedoes
EndUndoRedoHistory
Fore
SplineSet
597.5 -20.3 m 1
 1643.7 1646.6 l 1
 1822.1 1646.6 l 1
 775.8 -20.3 l 1
 597.5 -20.3 l 1
1767.9 85.1 m 0
 1938.3 85.1 2011.2 229.9 2011.2 398.4 c 0
 2011.2 568.8 1939.3 705.7 1770.8 705.7 c 0
 1599.4 705.7 1524.5 560.9 1524.5 391.4 c 0
 1524.5 256.5 1569.9 157 1659.5 109.7 c 0
 1689.1 93 1726.5 85.1 1767.9 85.1 c 0
695 909.7 m 0
 863.5 909.7 938.3 1053.5 938.3 1222 c 0
 938.3 1357.9 892.1 1458.4 804.3 1505.7 c 0
 773.8 1521.5 736.4 1529.4 696 1529.4 c 0
 524.6 1529.4 449.7 1387.5 449.7 1218 c 0
 449.7 1046.6 523.6 909.7 695 909.7 c 0
1764.9 -45 m 0
 1561.9 -45 1438.8 66.4 1385.6 220 c 0
 1366.9 272.3 1358 329.5 1358 391.5 c 0
 1358 595.5 1456.5 737.2 1599.4 801.3 c 0
 1650.6 824.9 1708.7 835.8 1771.8 835.8 c 0
 2034.8 835.8 2178.6 658.5 2178.6 397.4 c 0
 2178.6 194.4 2078.2 53.6 1936.3 -10.5 c 0
 1885.1 -34.1 1828 -45 1764.9 -45 c 0
691 778.7 m 0
 488 778.7 362.1 891.9 310.8 1044.6 c 0
 292.1 1097.8 283.2 1155 283.2 1216.1 c 0
 283.2 1420 381.7 1561.9 524.6 1625.9 c 0
 575.8 1648.6 633.9 1659.4 697 1659.4 c 0
 960 1659.4 1102.9 1482.1 1102.9 1221 c 0
 1102.9 1018 1003.4 879.1 861.5 814.1 c 0
 810.3 791.4 754.1 778.7 691 778.7 c 0
EndSplineSet
EndChar

StartChar: period
Encoding: 46 46 65
Width: 637
VWidth: 0
Flags: HW
LayerCount: 2
UndoRedoHistory
Layer: 1
Undoes
EndUndoes
Redoes
EndRedoes
EndUndoRedoHistory
Fore
SplineSet
312.2 -1.6 m 0
 218.9 -1.6 153 64.5 153 155.7 c 0
 153 245.1 220.5 309.3 312.3 309.3 c 0
 405.6 309.3 471.5 244.1 471.5 152.9 c 0
 471.5 61.7 404 -1.6 312.2 -1.6 c 0
EndSplineSet
EndChar

StartChar: plus
Encoding: 43 43 66
Width: 1675
VWidth: 0
Flags: HW
LayerCount: 2
UndoRedoHistory
Layer: 1
Undoes
EndUndoes
Redoes
EndRedoes
EndUndoRedoHistory
Fore
SplineSet
749.6 118.3 m 1
 749.6 612 l 1
 269.4 612 l 1
 269.4 773.5 l 1
 752.6 773.5 l 1
 752.6 1267.6 l 1
 924 1267.6 l 1
 924 773.5 l 1
 1406.1 773.5 l 1
 1406.1 612 l 1
 922 612 l 1
 922 118.3 l 1
 749.6 118.3 l 1
EndSplineSet
EndChar

StartChar: q
Encoding: 113 113 67
Width: 1389
VWidth: 0
Flags: HW
LayerCount: 2
UndoRedoHistory
Layer: 1
Undoes
EndUndoes
Redoes
EndRedoes
EndUndoRedoHistory
Fore
SplineSet
607.8 169.1 m 0
 779.6 169.1 906.6 270.5 911.7 508.1 c 1
 911.7 695.1 l 1
 873 774.3 762.6 828.7 638.5 828.7 c 0
 458.1 828.7 338.5 690.1 338.5 492.6 c 0
 338.5 297.5 435.2 169.1 607.8 169.1 c 0
1147.6 -618 m 2
 992 -700 911.7 -568.9 911.7 -487 c 2
 911.7 116.3 l 1
 833.7 20.4 713 -22 582.7 -22 c 0
 301.2 -22 97.4 174.2 97.4 487.1 c 0
 97.4 797 306.3 1019.2 606.4 1019.2 c 0
 836.7 1019.2 941.1 911.2 946.8 901.5 c 1
 960 975.6 l 1
 1154 959.4 l 1
 1153.5 956 1152.2 640.6 1152.2 630.3 c 2
 1152.2 -381.1 l 1
 1416.8 -247.1 l 1
 1507.7 -429.4 l 1
 1147.6 -618 l 2
EndSplineSet
EndChar

StartChar: question
Encoding: 63 63 68
Width: 965
VWidth: 0
Flags: HW
LayerCount: 2
UndoRedoHistory
Layer: 1
Undoes
EndUndoes
Redoes
EndRedoes
EndUndoRedoHistory
Fore
SplineSet
366.7 0 m 0
 279.7 0 219.2 61.6 219.2 145.6 c 0
 219.2 228.7 283.1 289.3 368.6 289.3 c 0
 454.7 289.3 515.2 227.7 515.2 143.7 c 0
 515.2 60.6 452.2 0 366.7 0 c 0
313 395.9 m 1
 313 849.7 595.2 936.744603937 595.2 1101.6 c 0
 595.2 1208.9313917 508.161814989 1250.62939809 406.070115648 1250.83885044 c 0
 335.735805046 1250.99014293 242.990944848 1231.17777002 168.8 1201.7 c 1
 140.9 1406.7 l 1
 241.6 1449.3 352.8 1471.3 456.1 1471.3 c 0
 682.5 1471.3 863.2 1364.1 863.2 1127.6 c 0
 863.2 769.92053872 483 744.6 428.1 395.9 c 1
 313 395.9 l 1
EndSplineSet
EndChar

StartChar: quotedbl
Encoding: 34 34 69
Width: 1213
VWidth: 0
Flags: HW
LayerCount: 2
UndoRedoHistory
Layer: 1
Undoes
EndUndoes
Redoes
EndRedoes
EndUndoRedoHistory
Fore
SplineSet
567.7 1667.2 m 1
 526.3 2201.2 l 1
 717.5 2201.2 l 1
 717.5 1667.2 l 1
 567.7 1667.2 l 1
233.7 1667.2 m 1
 191.4 2201.2 l 1
 384.5 2201.2 l 1
 384.5 1667.2 l 1
 233.7 1667.2 l 1
EndSplineSet
EndChar

StartChar: quotesingle
Encoding: 39 39 70
Width: 933
VWidth: 0
Flags: HW
LayerCount: 2
UndoRedoHistory
Layer: 1
Undoes
EndUndoes
Redoes
EndRedoes
EndUndoRedoHistory
Fore
SplineSet
338 1666.7 m 1
 296.6 2200.7 l 1
 488.7 2200.7 l 1
 488.7 1666.7 l 1
 338 1666.7 l 1
EndSplineSet
EndChar

StartChar: r
Encoding: 114 114 71
Width: 882
VWidth: 0
Flags: HW
LayerCount: 2
UndoRedoHistory
Layer: 1
Undoes
EndUndoes
Redoes
EndRedoes
EndUndoRedoHistory
Fore
SplineSet
194 0 m 1
 194 619.8 l 2
 194 810.5 131.7 861.5 91.6 909.8 c 1
 321.7 999 l 1
 361.6 960.6 395 912.6 410.4 837.8 c 1
 446.4 943.9 567.2 1015.6 677.1 1015.6 c 0
 757.4 1015.6 792.4 1005.6 827.5 996.5 c 1
 809.9 784.9 l 1
 768.6 795.4 731 801.7 691 801.7 c 0
 496.4 801.7 434.5 626.6 434.5 529.3 c 2
 434.5 0 l 1
 194 0 l 1
EndSplineSet
EndChar

StartChar: s
Encoding: 115 115 72
Width: 964
VWidth: 0
Flags: HW
LayerCount: 2
UndoRedoHistory
Layer: 1
Undoes
EndUndoes
Redoes
EndRedoes
EndUndoRedoHistory
Fore
SplineSet
500 -22 m 0
 333.3 -22 198.2 32.8 135.9 66.6 c 1
 187.7 237.5 l 1
 230.9 215.4 353.8 162.8 498.8 162.8 c 0
 607.9 162.8 647.5 211.9 647.5 273.5 c 0
 647.5 353.3 587.925 367.975 415.925 426.325 c 1
 200.725 497.275 126 577.7 126.3 723.3 c 0
 126.6 855.5 203.6 1019.2 478 1019.2 c 0
 668.4 1019.2 784.6 959.7 817.3 941.8 c 1
 775.1 783.4 l 1
 728.9 805.9 616.2 839.5 513.2 839.5 c 0
 407.1 839.5 350.4 805 350.4 740.9 c 0
 350.4 679.25 407.275 646.775 550.45 601.8875 c 0
 772.825 531.8 862.8 465.5 862.4 301.1 c 0
 862 106.2 743.3 -22 500 -22 c 0
EndSplineSet
EndChar

StartChar: semicolon
Encoding: 59 59 73
Width: 909
VWidth: 0
Flags: HW
LayerCount: 2
UndoRedoHistory
Layer: 1
Undoes
EndUndoes
Redoes
EndRedoes
EndUndoRedoHistory
Fore
SplineSet
237.3 834.9 m 1
 286.8 1078.2 l 1
 488.5 1078.2 l 1
 488.5 834.9 l 1
 237.3 834.9 l 1
168.4 -431.5 m 1
 291.5 104.4 l 1
 508.3 104.4 l 1
 320.1 -431.5 l 1
 168.4 -431.5 l 1
EndSplineSet
EndChar

StartChar: seven
Encoding: 55 55 74
Width: 1291
VWidth: 0
Flags: HW
LayerCount: 2
UndoRedoHistory
Layer: 1
Undoes
EndUndoes
Redoes
EndRedoes
EndUndoRedoHistory
Fore
SplineSet
332.1 0 m 1
 790.6 1223.7 l 1
 162 1223.7 l 1
 162 1417.3 l 1
 1073.5 1417.3 l 1
 1073.5 1245.3 l 1
 601.8 0 l 1
 332.1 0 l 1
EndSplineSet
EndChar

StartChar: six
Encoding: 54 54 75
Width: 1291
VWidth: 0
Flags: HW
LayerCount: 2
UndoRedoHistory
Layer: 1
Undoes
EndUndoes
Redoes
EndRedoes
EndUndoRedoHistory
Fore
SplineSet
640 163.2 m 0
 785.3 163.2 923.7 258.5 923.7 441.9 c 0
 923.7 637.6 794.8 743.4 644.7 743.4 c 0
 499.4 743.4 354 642 354 444.7 c 0
 354 263.2 489.7 163.2 640 163.2 c 0
650.1 -33.7 m 0
 384.2 -33.7 158.3 141 139.3 463.2 c 0
 116.7 843.2 265.3 1393.7 907 1562.3 c 1
 979.9 1375.3 l 1
 671.2 1293.2 486.7 1113.4 401.5 836.4 c 1
 447.6 889.1 577.3 934.3 682.8 934.3 c 0
 951.7 934.3 1152.8 723.3 1152.8 455.9 c 0
 1152.8 131.8 905.5 -33.7 650.1 -33.7 c 0
EndSplineSet
EndChar

StartChar: slash
Encoding: 47 47 76
Width: 1122
VWidth: 0
Flags: HW
LayerCount: 2
UndoRedoHistory
Layer: 1
Undoes
EndUndoes
Redoes
EndRedoes
EndUndoRedoHistory
Fore
SplineSet
152.5 0 m 1
 785.9 1448.8 l 1
 970 1448.8 l 1
 332.6 0 l 1
 152.5 0 l 1
EndSplineSet
EndChar

StartChar: t
Encoding: 116 116 78
Width: 884
VWidth: 0
Flags: HW
LayerCount: 2
UndoRedoHistory
Layer: 1
Undoes
EndUndoes
Redoes
EndRedoes
EndUndoRedoHistory
Fore
SplineSet
575.3 -15.2 m 0
 373.9 -15.2 232.5 78.6 232.5 296.4 c 2
 232.5 829.9 l 1
 43.9 829.9 l 1
 43.9 999 l 1
 233 999 l 1
 233 1307.9 l 1
 470.3 1338.7 l 1
 470.3 999 l 1
 753.3 999 l 1
 753.3 829.9 l 1
 470.3 829.9 l 1
 470.3 343 l 2
 470.3 229.7 526.4 179.3 625.8 179.3 c 0
 671.8 179.3 750.2 192.2 796.3 207.5 c 1
 820.7 24.2 l 1
 736.1 0.4 650.3 -15.2 575.3 -15.2 c 0
EndSplineSet
EndChar

StartChar: three
Encoding: 51 51 79
Width: 1291
VWidth: 0
Flags: HW
LayerCount: 2
UndoRedoHistory
Layer: 1
Undoes
EndUndoes
Redoes
EndRedoes
EndUndoRedoHistory
Fore
SplineSet
618.6 -22 m 0
 437.5 -22 255.2 45.1 162.3 183.8 c 1
 254.5 356.1 l 1
 378.2 235.3 509.1 192 624.7 192 c 0
 776.9 192 887.9 273.4 887.9 390.3 c 0
 887.9 610 724.5 642.6 525.2 641.9 c 1
 448 639.9 l 1
 446 841.8 l 1
 509.2 841.8 l 2
 650.3 841.8 843.7 861.9 843.7 1053.2 c 0
 843.7 1201.7 721.8 1256.3 590.3 1256.3 c 0
 474.9 1256.3 356.6 1215.4 282.5 1122.4 c 1
 149.2 1269.2 l 1
 258.8 1404.9 440.3 1471.3 616.1 1471.3 c 0
 854.3 1471.3 1080.3 1346.2 1080.3 1080.3 c 0
 1080.3 883.8 937.5 795.3 855 758.4 c 1
 944.4 731.3 1118.5 635 1118.5 387.3 c 0
 1118.5 111.5 871.1 -22 618.6 -22 c 0
EndSplineSet
EndChar

StartChar: two
Encoding: 50 50 80
Width: 1291
VWidth: 0
Flags: HW
LayerCount: 2
UndoRedoHistory
Layer: 1
Undoes
EndUndoes
Redoes
EndRedoes
EndUndoRedoHistory
Fore
SplineSet
186.4 0 m 1
 186.4 187.5 l 1
 202.1 202.5 563.6 563.1 578.7 579.1 c 0
 728.6 737.7 830.2 860.9 830.2 1001.9 c 0
 830.2 1152.6 732.1 1257.2 580.4 1257.2 c 0
 470.8 1257.2 376.1 1202.1 288.7 1096.8 c 1
 129.6 1229.8 l 1
 238.4 1388.7 404.9 1470.4 592.3 1470.4 c 0
 847.5 1470.4 1085.3 1312.4 1085.3 1009.8 c 0
 1085.3 835 992.8 668.3 832.9 520.3 c 0
 822.7 510.2 474.7 203.9 464.5 194.5 c 1
 1071.2 194.5 l 1
 1071.2 0 l 1
 186.4 0 l 1
EndSplineSet
EndChar

StartChar: u
Encoding: 117 117 81
Width: 1300
VWidth: 0
Flags: HW
LayerCount: 2
UndoRedoHistory
Layer: 1
Undoes
EndUndoes
Redoes
EndRedoes
EndUndoRedoHistory
Fore
SplineSet
538.2 -22 m 0
 306.4 -22 150.5 124.1 157.6 355.1 c 1
 161.8 565.8 l 1
 170.8 849.7 122.6 972.1 122.6 972.1 c 1
 363.2 999 l 1
 363.2 999 411.4 889.7 402.4 578.8 c 1
 397.3 379.4 l 2
 394.1 246.4 461.1 164.6 581.2 164.6 c 0
 746.2 164.6 852.7 264.3 852.7 447.7 c 2
 852.7 999 l 1
 1092.3 999 l 1
 1092.3 320.9 l 2
 1092.3 201.9 1145.8 183.4 1226.1 185.4 c 1
 1193 -3.9 l 1
 1031.5 -6.9 914 74.5 892.1 173 c 1
 831.3 46.3 702.5 -22 538.2 -22 c 0
EndSplineSet
EndChar

StartChar: underscore
Encoding: 95 95 82
Width: 980
VWidth: 0
Flags: HW
LayerCount: 2
UndoRedoHistory
Layer: 1
Undoes
EndUndoes
Redoes
EndRedoes
EndUndoRedoHistory
Fore
SplineSet
-9.5 -460.2 m 1
 -9.5 -332.2 l 1
 989 -332.2 l 1
 989 -460.2 l 1
 -9.5 -460.2 l 1
EndSplineSet
EndChar

StartChar: v
Encoding: 118 118 84
Width: 1104
VWidth: 0
Flags: HW
LayerCount: 2
UndoRedoHistory
Layer: 1
Undoes
EndUndoes
Redoes
EndRedoes
EndUndoRedoHistory
Fore
SplineSet
460.3 0 m 1
 25 999 l 1
 271.8 999 l 1
 501.5 469.2 l 2
 522.3 423.2 542.6 361 557.7 308.8 c 1
 588.7 408 600.8 441.3 612.8 469.2 c 2
 837.5 999 l 1
 1079.3 999 l 1
 658.9 0 l 1
 460.3 0 l 1
EndSplineSet
EndChar

StartChar: w
Encoding: 119 119 85
Width: 1670
VWidth: 0
Flags: HW
LayerCount: 2
UndoRedoHistory
Layer: 1
Undoes
EndUndoes
Redoes
EndRedoes
EndUndoRedoHistory
Fore
SplineSet
409.9 0 m 1
 17 999 l 1
 263.2 999 l 1
 454.6 464 l 2
 470 419.7 493.4 361 507.9 311.1 c 1
 535.9 403 548.5 435.3 560.5 463.2 c 1
 712.1 903.6 l 2
 758.448322859 1038.61467963 912.022888911 1027.91819993 956.4 908.1 c 2
 1119.8 464.2 l 2
 1135.2 420 1158.6 361.2 1174 311.4 c 1
 1201.4 403.5 1214 435.9 1226 464.3 c 1
 1412.9 999 l 1
 1653 999 l 1
 1274.2 0 l 1
 1075.5 0 l 1
 838.6 606.9 l 1
 608.8 0 l 1
 409.9 0 l 1
EndSplineSet
EndChar

StartChar: x
Encoding: 120 120 86
Width: 1140
VWidth: 0
Flags: HW
LayerCount: 2
UndoRedoHistory
Layer: 1
Undoes
EndUndoes
Redoes
EndRedoes
EndUndoRedoHistory
Fore
SplineSet
22.8 0 m 1
 430 518.5 l 1
 65.2 999 l 1
 348.3 999 l 1
 595.8 675.5 l 1
 831.7 999 l 1
 1100.7 999 l 1
 728.1 505.4 l 1
 1117.3 0 l 1
 824.5 0 l 1
 558.2 351.3 l 1
 281.2 0 l 1
 22.8 0 l 1
EndSplineSet
EndChar

StartChar: y
Encoding: 121 121 87
Width: 1276
VWidth: 0
Flags: HW
LayerCount: 2
UndoRedoHistory
Layer: 1
Undoes
EndUndoes
Redoes
EndRedoes
EndUndoRedoHistory
Fore
SplineSet
557.6 -537.2 m 0
 434.1 -537.2 302.8 -508.7 188.3 -456.4 c 1
 231.6 -261.1 l 1
 319.1 -305.3 442.9 -337.2 537.3 -337.2 c 0
 680.6 -337.2 866.5 -277.9 866.5 -44 c 1
 869.2 119.9 l 1
 798.5 19.9 684.1 -22 557.4 -22 c 0
 319.3 -22 158.9 125 165.1 356 c 2
 170.2 565.8 l 2
 177.4 849.7 131 972.1 131 972.1 c 1
 370.7 999 l 1
 370.7 999 415.3 889.7 409 578.8 c 2
 404.8 379.4 l 2
 401.6 239.2 480.3 164.6 605.8 164.6 c 0
 779.8 164.6 863.8 266.1 863.8 468.4 c 2
 863.8 999 l 1
 1103.4 999 l 1
 1103.4 -7.7 l 2
 1102.5 -391.5 851.2 -537.2 557.6 -537.2 c 0
EndSplineSet
EndChar

StartChar: z
Encoding: 122 122 88
Width: 1036
VWidth: 0
Flags: HW
LayerCount: 2
UndoRedoHistory
Layer: 1
Undoes
EndUndoes
Redoes
EndRedoes
EndUndoRedoHistory
Fore
SplineSet
119.6 0 m 1
 119.6 148.4 l 1
 640.4 831.6 l 1
 135.7 831.6 l 1
 135.7 999 l 1
 928.2 999 l 1
 928.2 852.6 l 1
 413 179.9 l 1
 949.7 179.9 l 1
 949.7 0 l 1
 119.6 0 l 1
EndSplineSet
EndChar

StartChar: zero
Encoding: 48 48 89
Width: 1291
VWidth: 0
Flags: HW
LayerCount: 2
UndoRedoHistory
Layer: 1
Undoes
EndUndoes
Redoes
EndRedoes
EndUndoRedoHistory
Fore
SplineSet
643.4 2.9 m 0
 296.8 2.9 117.8 300.8 117.8 734.1 c 0
 117.8 1173 297.6 1474.9 643.9 1474.9 c 0
 994.9 1474.9 1173.5 1174.4 1173.5 734.1 c 0
 1173.5 301.4 991.8 2.9 643.4 2.9 c 0
643.9 214.3 m 0
 830.2 214.3 905.8 431.7 905.8 734.1 c 0
 905.8 1043.5 832.4 1262.6 643.9 1262.6 c 0
 455.3 1262.6 378.3 1042.3 378.3 734.1 c 0
 378.3 430 453.5 214.3 643.9 214.3 c 0
EndSplineSet
EndChar
